<?xml version="1.0" standalone="no"?>
<!DOCTYPE svg PUBLIC "-//W3C//DTD SVG 20010904//EN"
 "http://www.w3.org/TR/2001/REC-SVG-20010904/DTD/svg10.dtd">
<svg version="1.0" xmlns="http://www.w3.org/2000/svg"
 width="607.000000pt" height="607.000000pt" viewBox="0 0 607.000000 607.000000"
 preserveAspectRatio="xMidYMid meet">
<metadata>
Created by potrace 1.11, written by Peter Selinger 2001-2013
</metadata>
<g transform="translate(0.000000,607.000000) scale(0.100000,-0.100000)"
fill="#000000" stroke="none">
<path d="M1830 4600 c0 -11 -6 -23 -14 -26 -8 -3 -13 -14 -11 -25 2 -11 -2
-22 -10 -26 -9 -3 -15 -18 -15 -34 0 -18 -5 -29 -14 -29 -9 0 -12 -8 -8 -25 3
-18 0 -25 -12 -25 -10 0 -16 -9 -16 -25 0 -14 -4 -25 -10 -25 -5 0 -10 -8 -10
-19 0 -10 -6 -24 -14 -31 -8 -6 -12 -18 -9 -26 3 -7 -2 -17 -11 -20 -9 -3 -16
-15 -16 -25 0 -10 -5 -19 -11 -19 -7 0 -9 -10 -7 -24 4 -18 0 -26 -15 -30 -13
-3 -18 -10 -13 -21 3 -9 0 -18 -9 -21 -8 -4 -15 -15 -15 -25 0 -11 -7 -31 -16
-44 -9 -14 -13 -25 -9 -25 5 0 0 -9 -9 -19 -10 -11 -15 -25 -10 -32 4 -7 3
-10 -3 -6 -5 3 -20 -18 -32 -48 -13 -30 -26 -55 -30 -55 -4 0 -8 -10 -8 -22
-1 -13 -7 -24 -13 -26 -5 -2 -10 -12 -10 -22 0 -9 -7 -23 -15 -30 -8 -7 -15
-21 -15 -31 0 -10 -4 -21 -10 -24 -5 -3 -10 -14 -10 -25 0 -10 -7 -21 -16 -24
-8 -3 -12 -10 -9 -16 3 -6 -1 -17 -9 -26 -9 -9 -14 -19 -11 -24 3 -4 -2 -13
-10 -20 -8 -7 -15 -21 -15 -31 0 -11 -4 -19 -10 -19 -5 0 -10 -7 -10 -15 0 -9
-7 -27 -16 -40 -9 -13 -13 -29 -9 -35 3 -5 -1 -13 -9 -16 -9 -3 -16 -15 -16
-25 0 -10 -4 -19 -10 -19 -5 0 -10 -9 -10 -19 0 -11 -7 -27 -16 -36 -9 -8 -13
-22 -10 -30 3 -8 1 -15 -5 -15 -5 0 -15 -13 -20 -30 -6 -16 -15 -30 -21 -30
-5 0 -7 -4 -4 -9 3 -4 -1 -17 -9 -27 -8 -10 -15 -27 -15 -36 0 -10 -4 -18 -10
-18 -5 0 -9 -3 -8 -7 4 -15 -14 -53 -22 -48 -4 3 -7 -6 -6 -19 2 -14 -3 -27
-10 -30 -8 -3 -14 -14 -14 -25 0 -11 -4 -23 -10 -26 -5 -3 -10 -12 -10 -20 0
-8 -13 -37 -30 -65 -16 -27 -26 -50 -22 -50 4 0 -2 -7 -12 -15 -11 -8 -16 -15
-12 -15 5 0 1 -11 -8 -25 -9 -14 -14 -29 -12 -34 3 -5 -1 -14 -9 -21 -8 -7
-15 -18 -15 -25 0 -7 -7 -26 -15 -41 -20 -39 -19 -61 5 -74 12 -6 20 -7 20 -1
0 6 12 6 31 1 18 -5 36 -7 40 -4 5 3 11 -1 14 -8 4 -9 28 -13 86 -13 45 1 96
-4 114 -11 18 -6 61 -12 96 -13 35 -1 66 -6 70 -12 3 -6 9 -10 13 -10 3 1 7 1
9 0 1 0 25 -2 52 -3 28 -2 62 -8 76 -14 15 -6 36 -8 48 -5 12 3 28 0 37 -8 8
-7 30 -13 49 -14 18 0 39 -6 46 -12 16 -13 17 -13 58 -13 16 0 36 -7 44 -15 8
-8 24 -13 35 -10 11 2 28 -3 39 -10 10 -8 30 -15 46 -15 15 0 27 -4 27 -10 0
-5 13 -10 29 -10 16 0 34 -6 40 -14 7 -8 21 -13 32 -11 10 2 19 0 19 -4 0 -9
38 -24 56 -22 7 1 14 -5 17 -13 4 -9 15 -13 26 -11 11 2 22 -3 25 -12 4 -8 13
-13 20 -10 8 3 20 -1 26 -9 7 -8 21 -14 31 -14 11 0 19 -4 19 -10 0 -5 8 -10
19 -10 10 0 24 -6 30 -13 6 -8 29 -22 51 -32 22 -10 40 -22 40 -28 0 -5 7 -6
15 -3 9 3 18 -1 21 -9 4 -8 12 -15 20 -15 8 0 14 -4 14 -10 0 -5 5 -10 11 -10
6 0 25 -10 42 -22 18 -13 34 -23 37 -23 3 0 22 -16 44 -35 21 -19 43 -34 48
-32 4 1 11 -5 14 -13 4 -8 10 -15 14 -15 12 0 215 -204 212 -212 -1 -5 5 -8
13 -8 8 0 15 -7 15 -16 0 -8 5 -12 10 -9 9 6 14 -8 11 -27 0 -5 6 -8 15 -8 8
0 12 -4 9 -10 -3 -5 0 -8 7 -5 20 8 17 423 -3 437 -11 7 -11 11 -1 15 6 2 9 9
6 15 -4 6 -7 20 -8 32 -1 11 -8 21 -16 21 -8 0 -21 4 -28 9 -7 4 -11 4 -10 -1
3 -9 -5 -13 -28 -13 -9 0 -12 5 -8 12 4 7 3 8 -5 4 -6 -4 -9 -12 -6 -17 4 -5
-11 -10 -32 -10 -21 -1 -52 -2 -70 -3 -17 -1 -35 -5 -40 -10 -4 -5 -3 -6 4 -2
6 3 14 2 17 -3 7 -10 -20 -9 -30 2 -4 3 -14 3 -23 -2 -9 -4 -29 -7 -44 -6 -15
1 -30 -2 -34 -8 -3 -5 -9 -3 -14 4 -7 12 -9 12 -9 0 0 -11 -3 -11 -15 -1 -11
9 -15 9 -15 1 0 -7 -4 -9 -10 -6 -5 3 -10 2 -10 -3 0 -17 -49 12 -56 33 -3 11
-6 23 -5 28 1 4 -3 7 -7 7 -5 0 -9 6 -10 13 0 6 -3 23 -7 37 -4 14 -9 34 -12
45 -2 11 2 33 11 49 8 16 13 33 10 38 -3 4 0 8 7 8 8 0 8 4 -1 15 -7 8 -8 15
-3 15 11 0 11 36 0 46 -4 4 -7 22 -7 41 0 18 -4 33 -10 33 -5 0 -10 13 -10 29
0 16 -5 31 -10 33 -6 2 -11 18 -13 36 -1 17 -5 32 -9 32 -5 0 -8 9 -8 20 0 11
-5 20 -10 20 -6 0 -9 3 -8 8 1 4 -5 27 -12 52 -8 25 -14 47 -15 50 -1 3 -9 22
-18 44 -9 21 -15 42 -12 46 3 5 -2 16 -11 24 -8 9 -13 16 -10 16 3 0 -2 19
-10 43 -9 23 -17 47 -18 52 -1 6 -4 15 -8 20 -8 13 -22 78 -20 88 2 5 -2 6 -8
2 -9 -5 -14 15 -13 53 1 6 -4 12 -10 12 -6 0 -8 3 -4 6 3 4 0 19 -8 34 -8 15
-11 30 -8 34 4 3 1 6 -5 6 -7 0 -12 14 -12 30 0 17 -5 30 -11 30 -5 0 -7 5 -4
10 3 6 0 10 -7 10 -9 0 -9 3 2 10 11 7 11 10 2 10 -7 0 -10 5 -7 10 3 6 2 10
-2 10 -5 0 -10 12 -11 27 -1 15 -8 30 -14 34 -7 5 -9 11 -6 15 4 4 3 15 -3 26
-6 11 -13 32 -15 46 -3 15 -8 29 -12 32 -4 3 -7 11 -8 18 -1 6 -2 21 -2 33 -1
11 -6 18 -11 14 -6 -3 -10 3 -10 12 0 36 -6 68 -13 73 -4 3 -9 15 -11 25 -1
11 -10 35 -19 53 -9 18 -12 30 -7 26 5 -3 3 10 -5 28 -17 39 -29 70 -30 80 -1
3 -4 10 -8 14 -5 4 -8 18 -8 31 0 12 -4 23 -9 23 -4 0 -8 10 -7 23 1 12 -4 28
-11 35 -7 7 -13 24 -13 38 0 13 -4 24 -10 24 -5 0 -10 9 -10 19 0 11 -5 23
-10 26 -6 4 -8 11 -5 16 4 5 1 9 -4 9 -6 0 -10 3 -10 8 1 4 0 10 -1 15 -1 4
-3 10 -5 15 -7 27 -30 70 -57 109 -17 25 -25 42 -17 38 8 -5 5 1 -5 13 -11 12
-16 25 -13 29 4 3 2 12 -4 19 -7 8 -7 14 1 19 5 3 10 15 10 26 0 10 5 19 10
19 6 0 10 6 10 13 0 7 9 19 20 27 28 20 25 30 -10 30 -23 0 -30 -4 -30 -20z"/>
<path d="M2103 4597 c15 -12 44 -35 65 -52 53 -41 118 -144 108 -171 -3 -8 -2
-14 3 -14 8 0 7 -22 -3 -67 -3 -12 -14 -32 -25 -45 -12 -12 -21 -26 -21 -30 0
-5 -4 -7 -9 -4 -16 10 -19 -18 -5 -35 8 -8 15 -27 16 -42 1 -15 8 -29 15 -31
6 -3 10 -14 8 -26 -2 -11 0 -20 6 -20 5 0 9 -7 9 -15 0 -14 38 -41 52 -37 3 1
12 -5 18 -13 7 -8 20 -15 29 -15 9 0 26 -7 37 -15 12 -8 24 -11 28 -7 4 3 10
1 14 -5 4 -6 18 -13 32 -14 14 -2 28 -8 31 -12 3 -4 19 -10 35 -13 16 -3 38
-8 49 -11 11 -4 30 -8 41 -8 12 0 29 -7 38 -14 13 -11 16 -11 16 0 1 11 3 11
13 -1 7 -8 26 -16 42 -17 36 -2 56 -7 70 -14 6 -3 26 -6 45 -8 19 -1 37 -5 40
-9 3 -4 16 -9 30 -10 14 -2 30 -8 36 -13 6 -5 14 -6 17 -2 4 3 7 1 7 -6 0 -7
5 -9 10 -6 6 3 10 2 10 -3 0 -5 6 -9 13 -9 17 0 16 379 -1 385 -7 2 -12 10
-12 18 0 8 -4 14 -10 14 -5 0 -10 6 -10 13 0 16 -173 192 -211 214 -16 10 -29
21 -29 26 0 4 -4 6 -9 3 -5 -3 -11 1 -15 9 -3 8 -13 15 -22 15 -9 0 -28 8 -42
19 -15 10 -37 22 -49 25 -13 4 -23 11 -23 15 0 4 -10 7 -22 8 -11 1 -24 7 -28
13 -4 6 -18 12 -31 12 -13 1 -30 6 -38 12 -7 6 -24 11 -38 12 -13 0 -29 6 -35
12 -8 8 -63 12 -167 12 l-156 0 28 -23z"/>
<path d="M4030 4605 c-7 -8 -18 -15 -25 -15 -21 0 -128 -110 -157 -160 -27
-46 -38 -105 -24 -128 4 -6 4 -12 1 -12 -6 0 6 -16 43 -55 22 -25 30 -61 13
-67 -6 -1 -12 -15 -15 -30 -2 -15 -8 -33 -13 -40 -4 -7 -8 -15 -8 -18 -2 -19
-32 -70 -42 -70 -7 0 -13 -4 -13 -9 0 -5 -10 -13 -22 -17 -13 -4 -25 -10 -28
-15 -3 -5 -15 -10 -25 -12 -11 -2 -29 -8 -40 -14 -11 -6 -26 -8 -32 -6 -7 3
-13 0 -13 -7 0 -6 -4 -8 -10 -5 -5 3 -10 1 -10 -5 0 -6 -8 -10 -17 -9 -25 4
-63 -10 -63 -22 0 -6 -9 -7 -20 -4 -12 4 -31 0 -43 -7 -12 -8 -36 -15 -54 -16
-17 -1 -44 -9 -60 -17 -15 -8 -29 -11 -31 -5 -2 5 -13 5 -28 0 -13 -5 -24 -6
-24 -2 0 4 -4 2 -8 -5 -4 -7 -25 -13 -47 -15 -22 -2 -43 -7 -47 -13 -4 -5 -15
-10 -25 -10 -10 -1 -29 -7 -43 -15 -24 -14 -30 -16 -49 -19 -15 -2 0 -41 16
-41 8 0 12 -4 9 -9 -3 -4 15 -8 39 -8 30 0 42 4 38 11 -4 6 1 5 10 -3 13 -10
17 -10 17 -1 0 9 3 10 13 1 8 -6 17 -8 21 -4 8 8 30 13 71 14 17 1 38 6 47 10
11 6 18 5 21 -4 4 -9 6 -9 6 0 1 7 8 10 16 7 8 -4 15 -1 15 6 0 10 3 10 15 0
11 -9 15 -9 15 -1 0 7 4 10 9 6 5 -3 12 -1 16 5 4 7 12 7 25 0 13 -7 21 -7 26
2 5 7 3 8 -6 3 -9 -5 -11 -4 -6 4 4 6 13 8 19 4 18 -11 38 -12 31 -2 -3 5 5 9
18 9 60 1 78 6 78 20 0 12 2 12 9 1 6 -9 11 -10 15 -3 4 6 13 9 21 5 8 -3 15
-1 15 4 0 18 28 10 33 -9 3 -10 1 -18 -4 -18 -5 0 -9 -9 -9 -19 0 -11 -5 -23
-11 -26 -6 -4 -8 -13 -5 -21 3 -8 1 -14 -4 -14 -6 0 -9 -3 -8 -7 1 -5 -4 -21
-10 -36 -7 -16 -10 -33 -6 -38 3 -5 0 -9 -6 -9 -6 0 -8 -4 -5 -10 3 -5 1 -10
-5 -10 -6 0 -8 -4 -5 -10 3 -5 1 -10 -5 -10 -7 0 -10 -7 -6 -15 3 -8 1 -15 -4
-15 -5 0 -6 -7 -3 -17 4 -11 3 -14 -5 -9 -8 5 -10 2 -6 -8 3 -9 2 -16 -4 -16
-6 0 -9 -12 -7 -26 1 -15 -3 -28 -11 -31 -8 -3 -12 -9 -9 -13 3 -5 1 -11 -5
-15 -6 -4 -8 -10 -5 -15 3 -5 -2 -16 -11 -24 -9 -9 -11 -16 -4 -16 6 0 8 -5 5
-10 -4 -6 -12 -7 -18 -3 -8 4 -8 2 1 -9 10 -13 10 -17 -3 -21 -8 -4 -12 -13
-9 -22 3 -8 1 -15 -6 -15 -6 0 -9 -4 -5 -9 3 -5 1 -12 -5 -16 -6 -4 -8 -10 -5
-15 3 -5 -2 -16 -11 -24 -11 -12 -12 -16 -2 -16 10 -1 9 -4 -2 -13 -9 -7 -15
-19 -15 -27 1 -8 -5 -25 -13 -37 -8 -13 -11 -23 -7 -23 4 0 2 -6 -4 -13 -6 -8
-8 -17 -4 -20 3 -4 0 -7 -7 -7 -7 0 -10 -3 -7 -7 4 -3 2 -12 -4 -20 -6 -7 -8
-13 -4 -13 5 0 0 -10 -11 -22 -10 -12 -13 -18 -7 -14 9 5 11 2 7 -8 -3 -9 -10
-16 -16 -16 -5 0 -6 -4 -3 -10 3 -5 -1 -22 -9 -38 -8 -16 -12 -32 -9 -36 4 -3
0 -6 -7 -6 -7 0 -11 -3 -7 -6 3 -4 -1 -20 -9 -36 -8 -16 -12 -33 -9 -37 3 -5
1 -11 -5 -13 -10 -3 -21 -36 -23 -70 -1 -9 -5 -16 -10 -15 -5 1 -12 -4 -15
-12 -3 -9 0 -11 8 -6 8 5 7 -1 -3 -16 -9 -13 -17 -32 -17 -42 0 -10 -4 -16 -8
-13 -7 4 -11 -9 -14 -51 -1 -7 -5 -10 -10 -7 -4 3 -8 1 -8 -4 0 -17 -101 -112
-112 -106 -7 4 -8 2 -4 -4 4 -6 -2 -19 -13 -29 -11 -9 -18 -20 -15 -25 3 -4
-2 -8 -10 -8 -9 0 -13 -7 -11 -20 2 -11 -1 -19 -8 -17 -7 1 -11 -8 -11 -20 1
-13 -2 -23 -7 -23 -4 0 -7 -9 -6 -19 1 -16 8 -19 34 -16 18 1 37 -3 43 -10 6
-7 28 -13 48 -12 21 1 43 -2 50 -7 6 -4 12 -3 12 2 0 5 15 4 35 -2 19 -6 35
-13 35 -16 0 -3 32 -5 70 -4 45 1 70 -3 70 -10 0 -6 4 -5 9 3 7 11 10 11 17 0
22 -35 76 7 80 62 1 17 9 41 18 53 11 17 12 26 3 35 -6 6 -7 11 -3 11 5 0 2
10 -6 23 -17 27 -17 148 1 190 6 16 11 37 11 47 0 10 6 25 13 32 7 7 12 24 12
38 0 14 5 31 12 38 7 7 13 24 13 37 0 13 5 27 10 30 6 4 8 11 5 16 -4 5 -1 9
5 9 7 0 10 7 7 15 -4 8 -2 17 4 20 5 4 7 11 4 16 -4 5 -1 9 5 9 7 0 10 6 7 13
-3 7 1 21 9 32 8 10 14 29 14 42 0 13 7 35 16 48 9 14 13 25 10 25 -4 0 -2 8
3 18 6 11 12 32 15 47 3 16 9 31 13 34 5 3 8 15 8 26 0 11 5 29 12 40 7 11 13
29 13 41 0 12 7 27 15 34 8 7 13 15 11 19 -2 3 7 38 20 76 14 39 26 79 28 90
1 11 8 31 15 43 7 13 10 28 8 35 -2 7 2 17 9 22 7 6 14 24 16 40 2 17 9 36 16
43 6 8 10 24 8 37 -2 13 1 26 8 28 6 3 12 17 14 32 1 16 7 35 14 43 7 8 12 24
13 37 0 12 6 29 14 38 7 9 11 24 7 32 -3 9 2 23 12 33 9 9 17 29 16 44 -1 15
5 29 12 32 8 3 11 12 8 20 -3 8 4 32 15 54 11 22 17 42 14 46 -3 3 -1 11 5 19
6 7 12 25 14 40 3 16 9 32 16 36 6 4 10 17 7 29 -2 14 2 25 10 29 8 3 15 16
15 28 0 13 5 27 10 30 6 3 10 15 10 26 0 11 4 18 9 15 5 -3 14 8 20 24 5 17
15 30 21 30 6 0 8 5 4 11 -3 6 -2 14 4 18 18 11 23 81 6 88 -7 3 -11 9 -8 14
3 5 -8 22 -25 38 -16 16 -27 32 -24 35 4 3 -25 6 -64 6 -51 0 -74 -4 -83 -15z"/>
<path d="M3640 4257 c0 -4 -5 -5 -10 -2 -6 4 -17 1 -25 -5 -12 -10 -15 -10
-15 1 0 9 -3 10 -8 3 -4 -6 -39 -10 -82 -10 -48 1 -79 -3 -85 -11 -5 -7 -32
-14 -60 -15 -27 -2 -55 -8 -62 -14 -6 -6 -27 -10 -47 -9 -21 2 -40 -3 -47 -11
-6 -8 -24 -14 -40 -14 -16 0 -29 -3 -30 -7 0 -5 -1 -29 -2 -56 -2 -56 14 -67
63 -42 17 9 34 14 39 11 4 -3 20 2 35 10 16 7 46 14 67 14 23 0 42 5 44 13 4
8 29 13 71 14 37 0 69 5 73 10 3 5 44 10 91 11 47 1 90 2 95 3 6 0 22 -2 38
-4 15 -2 27 -3 27 -2 0 1 -6 18 -14 36 -7 19 -11 40 -9 47 3 6 -2 12 -10 12
-9 0 -17 6 -19 12 -5 14 -78 19 -78 5z"/>
<path d="M4210 4185 c-7 -9 -14 -31 -16 -50 -2 -28 0 -35 15 -35 10 0 24 -6
30 -14 6 -7 23 -12 39 -10 15 2 37 -4 50 -12 13 -8 31 -12 41 -9 10 3 28 -3
42 -13 13 -11 33 -18 44 -16 10 2 25 -2 31 -7 7 -6 25 -12 40 -15 16 -3 34
-10 40 -15 7 -6 18 -9 26 -8 19 3 49 -12 43 -21 -3 -5 3 -6 12 -4 13 4 23 -6
35 -33 23 -50 60 -115 76 -131 7 -8 10 -18 6 -23 -3 -5 2 -12 11 -15 9 -4 15
-14 13 -23 -1 -9 5 -25 15 -36 9 -11 18 -24 18 -30 1 -5 10 -22 20 -37 10 -14
19 -31 19 -37 0 -6 5 -11 11 -11 5 0 7 -4 4 -10 -3 -5 -1 -10 5 -10 6 0 8 -5
5 -10 -3 -6 1 -13 9 -16 9 -3 16 -17 16 -30 0 -13 4 -24 9 -24 10 0 32 -35 52
-82 6 -16 15 -28 21 -28 5 0 7 -4 3 -9 -3 -5 -1 -12 5 -16 6 -4 8 -11 5 -16
-4 -5 1 -9 10 -9 9 0 14 -4 10 -9 -3 -5 -1 -12 5 -16 5 -3 17 -23 27 -43 9
-20 21 -40 25 -43 5 -3 10 -16 11 -27 1 -12 6 -22 12 -22 6 0 16 -12 23 -27
16 -38 67 -130 81 -147 6 -7 8 -16 4 -19 -3 -4 -2 -7 4 -7 5 0 18 -17 29 -37
10 -21 25 -44 32 -51 6 -7 12 -23 12 -34 0 -12 3 -18 6 -15 4 4 16 -11 26 -33
11 -22 24 -40 30 -40 5 0 7 -4 4 -9 -3 -4 3 -19 14 -31 11 -12 17 -26 15 -30
-3 -4 2 -13 10 -20 8 -7 15 -19 15 -26 0 -8 5 -14 10 -14 6 0 10 -6 10 -14 0
-8 4 -16 9 -18 5 -1 11 -10 13 -18 2 -8 9 -21 16 -29 7 -7 11 -19 8 -26 -3 -8
2 -16 9 -19 13 -5 50 -67 55 -91 1 -5 7 -16 13 -24 14 -16 22 -31 67 -115 19
-36 38 -66 42 -66 5 0 8 -9 8 -20 0 -11 5 -20 10 -20 6 0 10 -9 10 -19 0 -11
4 -21 9 -23 5 -1 11 -10 13 -18 2 -8 11 -22 20 -31 10 -9 15 -19 12 -22 -3 -3
5 -21 19 -39 13 -18 22 -39 20 -45 -6 -16 -45 -17 -59 -3 -6 6 -24 13 -40 16
-16 3 -30 9 -32 15 -2 5 -14 9 -27 9 -12 0 -35 6 -50 14 -15 8 -34 12 -42 9
-8 -3 -19 0 -23 7 -4 7 -22 13 -39 15 -17 1 -41 9 -54 18 -14 9 -29 12 -37 7
-8 -5 -22 -2 -35 6 -12 8 -41 16 -63 18 -23 2 -48 8 -55 15 -8 6 -34 10 -60 8
-25 -1 -43 1 -41 5 7 11 -26 17 -101 19 -38 1 -74 7 -80 13 -8 8 -101 10 -301
9 -313 -3 -314 -3 -314 -14 0 -4 -20 -7 -45 -7 -24 0 -49 -3 -54 -6 -5 -4 -13
-1 -16 4 -5 8 -11 6 -18 -4 -7 -9 -31 -16 -57 -17 -25 -2 -55 -9 -67 -17 -13
-8 -30 -11 -39 -8 -8 3 -24 1 -35 -5 -11 -6 -30 -13 -42 -15 -12 -3 -26 -6
-32 -8 -5 -1 -20 -8 -33 -15 -13 -7 -30 -10 -37 -7 -8 3 -15 1 -17 -5 -2 -5
-17 -12 -33 -15 -17 -3 -34 -9 -40 -15 -5 -5 -19 -9 -31 -9 -12 0 -27 -7 -34
-15 -7 -9 -20 -13 -27 -10 -8 3 -21 -2 -29 -10 -9 -8 -24 -15 -34 -15 -10 0
-20 -5 -22 -11 -2 -5 -10 -11 -18 -13 -8 -1 -25 -7 -36 -14 -12 -6 -24 -9 -26
-6 -3 2 -11 -2 -18 -11 -7 -8 -20 -15 -30 -15 -10 0 -21 -7 -24 -16 -4 -9 -9
-14 -12 -11 -3 3 -25 -5 -47 -19 -23 -14 -57 -31 -74 -39 -18 -9 -33 -20 -33
-26 0 -5 -4 -8 -9 -5 -5 3 -14 -1 -21 -9 -7 -8 -19 -15 -26 -15 -8 0 -14 -4
-14 -10 0 -5 -7 -10 -15 -10 -8 0 -28 -13 -44 -29 -16 -16 -33 -26 -36 -23 -4
4 -13 -2 -21 -12 -8 -11 -14 -16 -14 -10 0 5 -5 2 -10 -6 -6 -9 -10 -11 -10
-3 0 7 -7 10 -15 7 -8 -4 -15 -2 -15 4 0 5 -29 24 -65 43 -36 18 -65 37 -65
41 0 4 -5 8 -11 8 -6 0 -25 10 -42 22 -18 13 -36 23 -40 23 -5 0 -14 8 -21 17
-7 10 -16 15 -19 11 -4 -3 -21 5 -39 19 -18 14 -41 24 -50 22 -10 -1 -18 4
-18 12 0 8 -9 14 -20 14 -11 0 -20 5 -20 10 0 6 -6 10 -14 10 -7 0 -39 14 -70
30 -31 17 -56 28 -56 25 0 -3 -11 2 -25 11 -13 8 -28 13 -34 10 -5 -3 -11 1
-15 9 -3 8 -14 15 -25 15 -11 0 -23 5 -26 10 -3 6 -17 10 -29 10 -13 0 -29 7
-36 15 -7 9 -20 13 -28 10 -8 -3 -26 2 -39 10 -13 9 -28 13 -33 10 -6 -3 -10
-1 -10 5 0 6 -5 8 -10 5 -6 -4 -18 -1 -26 6 -8 7 -31 13 -51 15 -20 1 -38 7
-42 12 -3 6 -21 9 -40 8 -18 -1 -38 3 -45 9 -6 6 -42 13 -81 14 -38 1 -73 7
-77 13 -4 8 -70 12 -195 12 -113 1 -191 5 -195 11 -5 7 -8 7 -8 0 0 -7 -56
-10 -155 -10 -85 0 -155 -3 -155 -7 0 -5 -3 -7 -7 -7 -5 1 -11 0 -15 -1 -20
-6 -32 -8 -82 -9 -30 0 -61 -7 -68 -13 -7 -7 -31 -13 -53 -12 -22 0 -43 -4
-47 -9 -3 -6 -26 -11 -50 -13 -23 -1 -47 -3 -51 -3 -5 -1 -6 -5 -3 -10 3 -5
-3 -11 -14 -14 -11 -3 -22 -1 -25 4 -3 4 -24 -1 -45 -12 -22 -12 -47 -19 -54
-16 -8 3 -20 -1 -26 -9 -7 -8 -25 -14 -40 -14 -16 0 -30 -4 -32 -10 -2 -5 -16
-11 -33 -12 -16 -1 -35 -8 -42 -14 -6 -6 -32 -11 -56 -10 -25 1 -43 -2 -41 -6
3 -5 0 -8 -5 -8 -14 0 -14 27 -1 35 6 3 10 17 10 31 0 13 5 24 10 24 6 0 10 6
10 14 0 8 7 22 16 31 9 9 14 18 11 22 -3 3 3 14 13 26 11 11 17 23 15 27 -3 4
2 13 10 20 8 7 15 19 15 26 0 8 4 14 9 14 5 0 12 11 15 25 4 14 11 25 17 25 6
0 8 4 5 9 -3 5 1 14 9 21 8 7 15 19 15 26 0 8 5 14 10 14 6 0 10 9 10 19 0 11
5 23 11 26 5 4 15 17 20 28 5 12 20 40 34 62 14 22 30 51 36 65 6 14 21 39 35
57 13 17 24 39 24 47 0 9 4 16 9 16 10 0 27 39 23 53 -1 4 5 7 14 7 8 0 13 3
11 8 -7 11 29 72 38 64 5 -4 5 -2 1 5 -4 7 1 21 11 31 10 10 20 27 21 37 2 11
7 22 10 25 7 5 25 35 51 85 9 16 18 32 21 35 9 9 51 85 57 103 3 9 9 17 14 17
5 0 9 6 9 14 0 7 7 19 15 26 9 7 14 19 11 26 -3 8 0 17 7 21 7 5 21 25 32 45
10 20 22 35 25 33 3 -2 7 6 7 18 1 12 8 26 16 32 8 5 12 15 10 21 -2 6 7 22
20 36 13 13 22 29 20 35 -2 5 3 16 12 23 8 7 15 19 15 27 0 8 4 11 10 8 8 -5
12 7 9 31 0 3 7 11 17 18 9 7 14 17 11 23 -3 5 7 24 22 41 16 17 26 34 22 37
-3 4 2 13 13 20 10 8 16 18 13 23 -3 4 3 14 13 22 10 8 16 18 13 22 -3 5 3 18
13 29 9 10 15 22 12 25 -3 3 5 17 18 31 13 14 22 29 19 33 -2 4 4 15 15 25 11
10 20 23 20 30 0 6 16 26 35 45 19 19 35 40 35 47 0 8 6 16 14 19 9 3 12 12 9
21 -4 9 1 22 12 29 10 8 16 16 13 19 -10 10 -48 14 -48 5 0 -5 -23 -16 -51
-25 -52 -18 -119 -70 -119 -93 0 -7 -5 -10 -12 -6 -6 4 -8 3 -5 -3 4 -6 -3
-22 -14 -37 -11 -14 -17 -26 -12 -26 4 0 0 -7 -10 -14 -10 -8 -17 -17 -16 -21
3 -10 -35 -75 -44 -75 -4 0 -6 -4 -3 -9 3 -5 -1 -14 -9 -21 -8 -7 -15 -20 -15
-30 0 -10 -7 -21 -16 -24 -8 -3 -13 -10 -10 -15 3 -5 -1 -14 -9 -21 -8 -7 -15
-18 -15 -26 0 -7 -6 -19 -13 -26 -15 -15 -31 -49 -28 -61 0 -4 -6 -10 -14 -13
-8 -3 -13 -10 -10 -14 3 -4 -2 -13 -10 -20 -8 -7 -15 -21 -15 -32 0 -10 -5
-16 -10 -13 -6 3 -10 1 -10 -4 0 -20 -3 -26 -18 -37 -8 -6 -12 -16 -8 -22 4
-7 2 -12 -4 -12 -6 0 -13 -8 -17 -17 -3 -10 -16 -31 -27 -48 -11 -16 -21 -36
-23 -44 -1 -9 -7 -17 -12 -19 -6 -2 -11 -9 -11 -17 0 -7 -7 -18 -15 -25 -8 -7
-13 -16 -10 -20 3 -4 -2 -11 -11 -14 -9 -4 -14 -13 -10 -21 3 -8 1 -15 -5 -15
-5 0 -15 -13 -20 -30 -6 -16 -15 -30 -20 -30 -5 0 -9 -7 -9 -14 0 -8 -11 -27
-25 -42 -13 -14 -23 -30 -20 -34 3 -4 -2 -13 -10 -20 -8 -7 -15 -18 -15 -25 0
-7 -7 -18 -15 -25 -9 -7 -13 -15 -11 -18 3 -2 -6 -19 -19 -37 -14 -17 -25 -37
-25 -42 0 -6 -7 -16 -15 -23 -8 -7 -13 -15 -10 -19 2 -4 -7 -20 -20 -35 -14
-16 -23 -32 -20 -36 2 -4 -4 -15 -15 -25 -11 -10 -17 -22 -14 -26 3 -5 1 -9
-5 -9 -5 0 -13 -10 -17 -22 -4 -13 -20 -42 -36 -66 -17 -24 -31 -51 -32 -60
-2 -9 -8 -18 -14 -20 -7 -2 -12 -12 -12 -23 0 -10 -4 -19 -8 -19 -11 0 -43
-56 -36 -63 3 -3 -3 -11 -14 -18 -11 -7 -18 -18 -16 -24 3 -7 -2 -18 -10 -25
-9 -7 -13 -16 -10 -21 3 -5 -2 -12 -10 -15 -9 -3 -16 -13 -16 -20 0 -8 -6 -17
-14 -20 -8 -3 -12 -12 -9 -20 3 -8 0 -14 -5 -14 -6 0 -14 -10 -18 -22 -3 -13
-11 -29 -17 -37 -6 -7 -12 -20 -14 -29 -1 -9 -7 -18 -12 -20 -6 -2 -11 -10
-11 -18 0 -8 -7 -17 -15 -20 -8 -4 -12 -10 -9 -15 3 -5 0 -9 -6 -9 -6 0 -9 -4
-5 -9 3 -5 1 -12 -5 -16 -6 -4 -8 -10 -5 -15 3 -4 -2 -10 -10 -14 -8 -3 -15
-14 -15 -25 0 -11 -5 -21 -11 -23 -5 -2 -11 -12 -13 -21 -1 -10 -8 -22 -15
-27 -8 -4 -11 -13 -7 -19 4 -5 -2 -16 -13 -22 -10 -7 -17 -18 -15 -24 3 -6 -5
-20 -16 -32 -22 -24 -26 -43 -9 -43 5 0 7 -5 4 -10 -3 -6 0 -10 8 -10 8 0 17
-6 20 -14 7 -16 49 -15 71 3 9 7 16 10 16 6 0 -4 6 -2 13 4 8 6 17 8 20 4 4
-3 15 1 24 9 10 9 26 14 35 13 9 -2 19 4 22 12 4 9 14 13 26 10 10 -3 24 1 31
9 6 8 22 14 34 14 12 0 28 6 34 14 7 8 19 13 29 12 9 -2 23 3 30 11 7 7 24 13
37 13 13 0 27 5 30 10 3 6 19 10 35 10 15 0 30 5 32 12 2 6 18 12 34 13 16 0
36 5 44 10 8 5 26 11 40 13 14 1 38 8 53 14 16 6 40 11 55 12 15 1 33 5 41 10
8 5 37 11 63 12 27 1 55 7 63 14 12 10 15 10 15 -1 0 -10 3 -10 8 -3 4 6 42
13 86 16 43 3 81 10 85 16 4 7 12 8 20 2 8 -4 19 -6 26 -4 24 10 175 9 179 -1
3 -7 5 -7 5 0 1 9 105 10 324 6 16 -1 26 -5 23 -9 -3 -5 7 -9 22 -9 72 -2 118
-8 123 -16 4 -5 29 -10 57 -10 28 -1 48 -5 46 -9 -6 -9 -2 -10 44 -12 19 -1
37 -7 40 -13 4 -7 22 -11 41 -11 18 1 36 -4 40 -11 4 -6 17 -13 29 -16 11 -2
30 -8 41 -14 11 -6 29 -11 40 -11 10 0 21 -4 23 -9 2 -5 12 -11 23 -13 11 -1
22 -6 25 -10 3 -4 15 -9 27 -11 12 -1 28 -9 36 -16 9 -6 24 -13 36 -14 11 0
17 -5 15 -9 -3 -4 0 -9 5 -9 6 -1 16 -3 21 -4 6 -1 15 -3 21 -4 5 0 7 -6 3
-13 -5 -8 -2 -9 9 -5 9 3 23 0 31 -8 8 -8 22 -15 30 -15 9 0 16 -3 16 -8 0 -7
22 -21 73 -44 15 -7 27 -16 27 -21 0 -4 5 -5 10 -2 6 3 13 -1 16 -10 4 -9 13
-14 21 -11 7 3 16 -1 20 -10 3 -8 12 -13 19 -10 8 3 35 -12 61 -34 77 -63 106
-85 136 -99 15 -8 27 -20 27 -28 0 -9 13 -13 41 -13 23 0 38 4 34 10 -3 5 7
12 22 16 15 4 41 18 56 31 16 12 35 23 42 23 8 0 19 8 24 18 6 9 11 13 11 7 0
-7 3 -7 8 0 10 14 90 65 102 65 5 0 10 4 10 9 0 5 16 15 36 21 19 7 38 18 41
26 3 8 9 12 13 9 4 -3 19 4 32 15 14 11 28 17 31 13 4 -3 9 2 13 11 3 9 14 16
24 16 11 0 22 4 25 10 3 5 15 10 26 10 10 0 19 4 19 9 0 8 46 30 80 37 8 2 16
8 18 14 2 5 8 8 13 4 5 -3 9 0 9 6 0 6 5 8 10 5 6 -4 22 0 35 9 13 9 33 16 45
16 11 0 20 5 20 10 0 6 9 10 19 10 27 0 52 11 46 19 -2 5 8 7 23 6 15 -1 35 5
45 13 9 8 20 13 23 10 3 -4 28 2 56 12 28 10 58 17 67 15 9 -1 19 2 23 8 3 6
30 12 59 14 29 1 56 8 59 13 4 6 11 10 16 9 5 -1 37 -1 72 0 43 1 61 4 56 12
-4 8 0 9 15 4 11 -3 21 -3 21 2 0 4 91 7 202 6 240 -2 287 -4 295 -16 3 -4 31
-7 63 -6 39 2 65 -2 76 -12 16 -12 17 -12 9 1 -8 13 -6 13 7 2 9 -7 39 -14 66
-16 28 -1 56 -7 63 -12 8 -6 31 -12 53 -13 21 -1 45 -9 54 -18 9 -9 18 -11 20
-5 3 11 40 4 61 -12 8 -6 27 -11 43 -12 16 -1 34 -6 41 -13 6 -6 23 -11 38
-11 15 0 29 -4 31 -9 2 -5 18 -12 37 -14 19 -3 37 -11 41 -17 4 -6 14 -8 22
-5 8 3 23 -1 32 -10 9 -9 22 -15 29 -12 6 2 19 -2 28 -9 8 -7 24 -15 36 -17
12 -1 28 -9 37 -16 8 -7 21 -11 28 -8 7 2 23 -4 36 -14 13 -10 30 -15 39 -12
8 3 18 1 22 -5 8 -13 71 -23 71 -11 0 5 10 19 22 31 14 14 18 23 10 26 -7 2
-10 8 -6 13 3 5 0 9 -7 9 -7 0 -9 3 -6 6 4 4 -2 19 -13 34 -11 15 -17 30 -13
34 3 3 2 6 -4 6 -6 0 -16 14 -22 30 -5 17 -15 30 -20 30 -6 0 -8 6 -5 13 3 8
-2 20 -10 27 -9 7 -14 16 -11 20 3 4 -2 13 -10 20 -8 7 -15 18 -15 25 0 7 -7
18 -15 25 -8 7 -12 16 -9 21 3 5 1 9 -4 9 -4 0 -19 21 -32 48 -13 26 -26 49
-29 52 -3 3 -19 31 -36 62 -16 32 -33 58 -38 58 -4 0 -6 3 -5 8 2 11 -25 65
-44 86 -10 11 -18 25 -18 32 0 6 -7 17 -15 24 -8 7 -13 16 -10 20 3 5 -1 15
-9 22 -7 8 -17 24 -20 36 -4 12 -12 22 -17 22 -5 0 -9 7 -9 15 0 8 -5 15 -11
15 -5 0 -8 4 -4 9 3 5 1 12 -4 15 -5 3 -18 24 -29 45 -37 70 -47 86 -60 94 -7
5 -10 12 -7 18 4 5 0 12 -8 15 -9 3 -14 16 -12 30 1 14 0 22 -3 19 -8 -8 -32
16 -32 32 0 7 -9 23 -20 35 -11 12 -20 29 -20 39 0 9 -7 20 -16 23 -8 3 -12
10 -9 16 3 5 1 10 -5 10 -6 0 -8 5 -5 10 3 6 2 10 -3 10 -5 0 -15 12 -23 28
-8 15 -18 30 -22 33 -5 3 -9 12 -11 20 -1 8 -14 33 -29 56 -15 24 -27 47 -27
53 0 5 -4 10 -10 10 -5 0 -10 7 -10 15 0 9 -7 18 -15 21 -8 4 -12 10 -9 15 3
5 -4 22 -15 38 -12 16 -21 34 -21 40 0 6 -4 11 -8 11 -5 0 -18 23 -30 50 -12
28 -26 50 -30 50 -5 0 -14 16 -22 35 -8 19 -17 35 -22 35 -4 0 -8 6 -8 14 0
16 -80 149 -92 154 -5 2 -8 10 -8 17 0 13 -26 67 -43 89 -19 25 -51 82 -53 95
-2 8 -6 17 -11 20 -4 3 -19 26 -32 51 -31 59 -52 82 -68 76 -7 -3 -18 3 -25
12 -7 10 -24 17 -38 17 -14 0 -31 5 -38 12 -7 7 -24 13 -37 13 -13 0 -27 5
-30 10 -3 6 -19 10 -35 10 -16 0 -35 6 -42 13 -7 7 -26 12 -41 12 -16 -1 -35
4 -42 12 -7 7 -30 13 -50 13 -19 0 -38 6 -40 13 -8 18 -80 20 -95 2z"/>
<path d="M2377 3786 c-2 -6 3 -27 11 -46 8 -19 19 -46 25 -60 6 -14 9 -29 8
-34 -1 -4 5 -19 14 -32 8 -13 13 -24 9 -24 -3 0 1 -12 11 -26 9 -14 14 -28 11
-31 -3 -4 -1 -12 5 -20 6 -7 8 -13 3 -13 -5 0 -3 -4 4 -8 7 -5 15 -22 18 -38
3 -16 12 -40 21 -53 11 -17 12 -21 2 -16 -9 5 -8 1 2 -11 9 -10 15 -27 14 -37
-2 -10 1 -14 8 -10 6 4 8 0 4 -10 -3 -8 1 -21 9 -28 8 -6 12 -14 10 -17 -3 -2
-1 -13 5 -24 6 -11 12 -29 14 -40 3 -12 8 -24 13 -27 5 -3 8 -14 6 -23 -1 -10
2 -18 7 -18 6 0 8 -4 4 -9 -3 -5 0 -15 7 -23 7 -7 13 -22 13 -33 -1 -11 3 -23
7 -26 5 -3 10 -14 13 -25 2 -10 15 -47 30 -82 14 -35 22 -68 19 -74 -4 -7 -3
-8 4 -4 7 4 12 4 13 -1 3 -31 11 -58 19 -63 6 -3 11 -18 12 -33 1 -15 6 -27
10 -27 4 0 8 -6 8 -14 0 -7 8 -31 17 -52 9 -22 17 -45 17 -52 1 -7 7 -17 15
-21 8 -5 11 -16 8 -25 -4 -9 -3 -16 2 -16 4 0 16 -17 25 -37 10 -23 37 -52 66
-73 27 -19 49 -40 50 -46 0 -6 7 -17 15 -24 8 -7 12 -17 8 -23 -3 -5 -1 -7 4
-4 6 4 14 0 17 -9 4 -9 10 -14 14 -10 11 11 9 60 -3 68 -6 5 -5 8 2 8 7 0 10
7 7 15 -4 8 0 23 7 32 8 10 9 14 2 10 -14 -9 -15 52 -1 70 5 7 6 18 1 25 -12
20 -12 78 1 78 7 0 8 3 0 8 -14 9 -14 102 0 102 7 0 7 3 1 8 -16 11 -17 33 -3
50 7 9 8 13 2 9 -15 -8 -13 65 1 75 7 5 6 8 -1 8 -14 0 -14 90 0 90 7 0 6 3
-1 8 -13 8 -12 29 1 51 6 9 5 12 -1 8 -5 -3 -9 16 -9 49 0 31 5 54 11 54 5 0
4 4 -3 9 -14 9 -13 32 3 43 6 5 6 8 -1 8 -14 0 -14 90 0 90 7 0 6 3 -1 8 -13
8 -12 29 1 51 6 9 5 12 -1 8 -5 -3 -9 16 -9 49 0 31 5 54 11 54 5 0 4 4 -3 9
-14 9 -13 32 3 43 6 5 6 8 -1 8 -6 0 -11 11 -11 25 0 14 4 25 9 25 7 0 7 5 1
13 -14 18 -14 59 0 50 9 -5 9 -3 1 8 -6 8 -10 22 -9 31 2 13 -2 15 -18 9 -33
-11 -146 -4 -165 11 -12 10 -14 10 -8 1 4 -7 3 -13 -1 -13 -5 0 -15 6 -22 13
-11 10 -12 9 -6 -3 8 -13 6 -13 -7 -2 -13 10 -17 10 -21 0 -4 -10 -6 -10 -6 0
-1 7 -15 12 -35 12 -19 0 -38 5 -41 10 -4 7 -13 7 -24 0 -12 -6 -21 -6 -28 1
-5 5 -26 10 -47 11 -20 1 -39 5 -42 10 -3 5 -12 4 -19 -2 -9 -8 -17 -7 -26 2
-8 7 -25 15 -39 16 -14 2 -29 5 -35 5 -5 1 -13 6 -17 11 -9 14 -47 15 -51 2z"/>
</g>
</svg>
